<svg xmlns="http://www.w3.org/2000/svg" xmlns:xlink="http://www.w3.org/1999/xlink" width="42.371" height="47.224" viewBox="0 0 42.371 47.224"><defs><linearGradient id="linear-gradient" x1="0.5" x2="1.226" y2="1" gradientUnits="objectBoundingBox"><stop offset="0" stop-color="#4c0ec4"></stop><stop offset="1" stop-color="#ea00f6"></stop></linearGradient><clipPath id="clip-path"><rect id="Rectangle_137" data-name="Rectangle 137" width="42.371" height="47.224" transform="translate(0 -0.001)" fill="url(#linear-gradient)"></rect></clipPath></defs><g id="Group_119" data-name="Group 119" transform="translate(0 0)"><g id="Group_118" data-name="Group 118" clip-path="url(#clip-path)"><path id="Path_27" data-name="Path 27" d="M15.487,47.224c.17-.1.341-.2.58-.338a4.483,4.483,0,0,1-2.569-4.61c.053-.606-.332-.664-.769-.669-.847-.01-1.695.011-2.542-.015a3.276,3.276,0,0,1-3.153-2.286,3.077,3.077,0,0,1,1.089-3.544c1.041-.867,2.128-1.679,3.213-2.492a1.159,1.159,0,0,0,.5-1.383Q8.9,19.689,6.044,7.474c-.19-.808-.581-1.157-1.411-1.064a14.733,14.733,0,0,1-3.142,0C.708,6.327.088,6.017.008,5.158A1.351,1.351,0,0,1,1.267,3.59a26.591,26.591,0,0,1,5.875-.057A1.375,1.375,0,0,1,8.389,4.7c.315,1.282.686,2.551.957,3.842.172.819.514,1.215,1.415,1.232a10.6,10.6,0,0,1,2.493.427,1.263,1.263,0,0,1,.971,1.558,1.335,1.335,0,0,1-1.406,1.209,6.518,6.518,0,0,1-1.51-.164c-.75-.163-.913.1-.748.8.75,3.2,1.47,6.4,2.211,9.6.581,2.506,1.2,5,1.752,7.517a1.127,1.127,0,0,0,1.323,1.024q10.931-.042,21.861-.007c1.011,0,1.364-.264,1.321-1.315-.164-4.032.195-8.059.223-12.09a1.755,1.755,0,0,0-.7-1.665c-.58-.42-1.083-1-.558-1.813a1.469,1.469,0,0,1,2.017-.588A3.156,3.156,0,0,1,42.181,17.3c.082,4.811-.028,9.622-.217,14.43a3.327,3.327,0,0,1-3.225,3.092c-.741.061-1.49.034-2.236.034-7.049,0-14.1.006-21.149-.025a3.422,3.422,0,0,0-2.422.813c-.843.733-1.749,1.392-2.618,2.1-.2.163-.477.341-.325.664.12.254.4.217.633.224.441.013.881.01,1.322.01q13.777,0,27.555,0a6.163,6.163,0,0,1,1.715.142,1.323,1.323,0,0,1,1.151,1.443,1.382,1.382,0,0,1-1.4,1.353c-.809.06-1.626.043-2.439.022-.617-.017-.821.188-.76.842a4.276,4.276,0,0,1-2.039,4.151c-.216.147-.678.193-.313.636H31.758c.235-.259.106-.4-.152-.53a4.116,4.116,0,0,1-2.356-4.223c.036-.665-.241-.889-.89-.879-1.753.028-3.508.039-5.261,0-.777-.019-1.088.209-1.051,1.031a4.157,4.157,0,0,1-2.032,3.927c-.244.155-.582.266-.461.678Zm3.6-4.329a1.137,1.137,0,0,0-1.266-1.149,1.233,1.233,0,0,0-1.4,1.24A1.287,1.287,0,0,0,17.7,44.294a1.381,1.381,0,0,0,1.391-1.4m15.683.009a1.15,1.15,0,0,0-1.294-1.136,1.194,1.194,0,0,0-1.249,1.282,1.243,1.243,0,0,0,1.247,1.224,1.3,1.3,0,0,0,1.3-1.37" fill="url(#linear-gradient)"></path><path id="Path_28" data-name="Path 28" d="M15.624,10.159A10.31,10.31,0,0,1,25.71,0,10.45,10.45,0,0,1,36.181,10.248,10.161,10.161,0,0,1,25.82,20.532a10.268,10.268,0,0,1-10.2-10.373m10.23,7.332a7.219,7.219,0,0,0,7.285-7.178,7.28,7.28,0,1,0-14.559-.078,7.135,7.135,0,0,0,7.274,7.256" fill="url(#linear-gradient)"></path><path id="Path_29" data-name="Path 29" d="M30.9,7.753a2.224,2.224,0,0,1-.665,1.233c-1.478,1.53-2.936,3.083-4.464,4.564-1.108,1.072-1.643,1.017-2.734-.084A14.712,14.712,0,0,1,21,10.954a1.21,1.21,0,0,1,.238-1.72A1.206,1.206,0,0,1,22.969,9.2a6.943,6.943,0,0,1,1,1c.4.509.692.482,1.106-.005.941-1.106,1.9-2.2,2.912-3.242s1.938-1.008,2.657-.041a1.13,1.13,0,0,1,.257.845" fill="url(#linear-gradient)"></path></g></g></svg>