<svg xmlns="http://www.w3.org/2000/svg" xmlns:xlink="http://www.w3.org/1999/xlink" id="Group_113" data-name="Group 113" width="47.196" height="47.192" viewBox="0 0 47.196 47.192"><defs><linearGradient id="linear-gradient" x1="0.5" x2="1.065" y2="0.883" gradientUnits="objectBoundingBox"><stop offset="0" stop-color="#4c0ec4"></stop><stop offset="1" stop-color="#ea00f6"></stop></linearGradient><clipPath id="clip-path"><rect id="Rectangle_134" data-name="Rectangle 134" width="47.196" height="47.192" fill="url(#linear-gradient)"></rect></clipPath></defs><g id="Group_112" data-name="Group 112" clip-path="url(#clip-path)"><path id="Path_18" data-name="Path 18" d="M9.569,47.192a4.441,4.441,0,0,1-.845-2.033c0-.505-.442-.413-.765-.414-1.627,0-3.253.016-4.879,0a12.174,12.174,0,0,1-1.614-.154A1.562,1.562,0,0,1,.024,42.911C0,40.37-.011,37.828.025,35.287a1.531,1.531,0,0,1,1.686-1.735c2.675-.14,5.352-.13,8.028-.05,1.008.031,1.7.409,1.684,1.569-.012.706.492.666.994.665q10.47-.017,20.939-.019c.339,0,.68-.02,1.016.011.893.083,1.535.054,1.487-1.2-.034-.9.9-1.009,1.607-1.019,2.337-.031,4.675.013,7.012-.019a3.874,3.874,0,0,1,2.718.891v9.356a3.586,3.586,0,0,1-2.947,1.034c-1.655-.068-3.315-.024-4.974-.011-.274,0-.784-.14-.755.249.065.85-.6,1.418-.68,2.186Zm14.074-8.7V38.5c-3.761,0-7.521.016-11.281-.015-.707,0-.942.163-.906.911.069,1.419.04,2.844,0,4.266-.016.536.136.713.674.712q11.433-.013,22.867.007c.564,0,.765-.171.746-.765-.045-1.387-.061-2.779.008-4.164.038-.75-.126-.99-.926-.98-3.726.046-7.453.02-11.179.02M5.676,41.869v-.053c.778,0,1.557-.012,2.336,0,.512.01.715-.181.7-.721-.032-1.387-.018-2.776,0-4.164.006-.483-.207-.672-.667-.669-1.523.008-3.047.016-4.57.008-.47,0-.662.177-.657.662Q2.842,39.07,2.8,41.2c-.012.56.247.694.746.675.71-.028,1.421-.008,2.132-.008m35.443-.058c1.04,0,1.818-.015,2.6.005.476.013.661-.171.656-.654-.014-1.386-.016-2.773.022-4.159.016-.586-.21-.773-.77-.757-1.352.038-2.707.093-4.056.033-.879-.039-1.129.281-1.035,1.1.062.533-.027,1.082.006,1.621.055.9-.449,2.043.126,2.649.627.66,1.8.038,2.456.16" fill="url(#linear-gradient)"></path><path id="Path_19" data-name="Path 19" d="M23.58.007c2.88,0,5.761-.019,8.64.007,1.72.016,2.1.316,2.29,1.9a6.644,6.644,0,0,0,4.84,5.8c2.391.834,2.485.395,2.382,3.5-.243,7.35-2.206,14.138-6.723,20.06a4.5,4.5,0,0,1-.848.867,1.141,1.141,0,0,1-1.566-.137,1.077,1.077,0,0,1-.32-1.446,9.751,9.751,0,0,1,.79-1.177c3.519-4.607,5.1-9.912,5.826-15.584.266-2.084.082-3.4-2.192-4.309a7.778,7.778,0,0,1-4.582-5.86c-.161-.729-.482-.909-1.252-.888-4.877.131-9.757.122-14.635.013-.578-.013-.912.019-1.072.708a9.323,9.323,0,0,1-6.28,6.877c-.453.169-.758.281-.744.869.16,6.629,1.519,12.892,5.522,18.364.3.41.611.811.909,1.223a1.272,1.272,0,0,1-.2,1.9,1.193,1.193,0,0,1-1.788-.269,25.921,25.921,0,0,1-4.766-8.207A39.93,39.93,0,0,1,5.447,9.67a1.62,1.62,0,0,1,1.44-1.681,10.8,10.8,0,0,0,2.547-.974,6.023,6.023,0,0,0,3.221-4.762c.252-2,.53-2.245,2.589-2.247q4.169,0,8.336,0" fill="url(#linear-gradient)"></path><path id="Path_20" data-name="Path 20" d="M23.429,30.185a10.008,10.008,0,1,1,.512-20,10.006,10.006,0,1,1-.512,20M16.28,20.1a7.322,7.322,0,1,0,7.482-7.24A7.379,7.379,0,0,0,16.28,20.1" fill="url(#linear-gradient)"></path><path id="Path_21" data-name="Path 21" d="M22.469,24.115a1.221,1.221,0,0,1-.9-.374A16.627,16.627,0,0,1,19.123,20.9a1.146,1.146,0,0,1,.17-1.709,1.2,1.2,0,0,1,1.8.016c.117.122.249.229.367.349,1.069,1.087,1.063,1.083,2.168-.074.818-.857,1.636-1.714,2.482-2.542a1.4,1.4,0,0,1,2.069-.2c.643.59.665,1.222-.084,2.031-1.469,1.59-2.987,3.134-4.5,4.686a1.976,1.976,0,0,1-1.132.658" fill="url(#linear-gradient)"></path></g></svg>