<svg xmlns="http://www.w3.org/2000/svg" xmlns:xlink="http://www.w3.org/1999/xlink" width="47.194" height="40.681" viewBox="0 0 47.194 40.681"><defs><linearGradient id="linear-gradient" x1="0.448" y1="0.241" x2="1.141" y2="1" gradientUnits="objectBoundingBox"><stop offset="0" stop-color="#4c0ec4"></stop><stop offset="1" stop-color="#ea00f6"></stop></linearGradient><clipPath id="clip-path"><rect id="Rectangle_135" data-name="Rectangle 135" width="47.194" height="40.681" transform="translate(0 0)" fill="url(#linear-gradient)"></rect></clipPath></defs><g id="Group_115" data-name="Group 115" transform="translate(0 0)"><g id="Group_114" data-name="Group 114" clip-path="url(#clip-path)"><path id="Path_22" data-name="Path 22" d="M0,38.036V7.528a1.238,1.238,0,0,0,.248-.289A3.65,3.65,0,0,1,4.11,4.876c1.287.039,2.576,0,3.863.011,1.114.01,1.777.532,1.785,1.373.008.891-.674,1.42-1.849,1.421-.949,0-1.9-.03-2.846-.015C2.526,7.7,2.852,7.411,2.821,9.9c-.032,2.545-.009,2.545,2.488,2.535.3,0,.612-.026.914,0a2.121,2.121,0,0,0,1.772-.765q5.376-5.26,10.82-10.452c1.069-1.025,1.488-1,2.542.078Q22.7,2.678,23.982,4.127c.328.371.528.385.876.019,1.05-1.105,2.128-2.185,3.213-3.256,1.207-1.192,1.6-1.195,2.722.041q4.923,5.413,9.819,10.854c.3.329.557.666,1.078.65.71-.021,1.423,0,2.134.023.483.017.646-.17.626-.665-.042-1.048-.047-2.1-.013-3.15.027-.853-.343-1.134-1.168-1.067a21.619,21.619,0,0,1-2.234,0c-.868-.02-1.463-.432-1.457-1.337s.677-1.278,1.494-1.342c.64-.049,1.287-.015,1.931-.014,2.818,0,4.181,1.356,4.182,4.167q0,10.268,0,20.536c0,2.508.022,5.016-.008,7.523a3.459,3.459,0,0,1-3.408,3.566q-20.079.012-40.158.005A3.361,3.361,0,0,1,.475,38.807c-.146-.264-.316-.514-.475-.771m23.7-.183v0q3.558,0,7.116,0c4.2,0,8.4-.023,12.605.008.75.006,1.044-.193.99-.964a16.709,16.709,0,0,1,.012-2.336c.056-.759-.192-.972-.975-.955q-5.132.117-10.265.095c-2.6-.012-3.891-1.38-3.894-4.009,0-2.169-.008-4.338,0-6.507a3.348,3.348,0,0,1,3.669-3.652c3.524,0,7.048-.016,10.572.012.7.006.969-.173.906-.915a15.474,15.474,0,0,1,0-2.538c.06-.751-.236-.9-.929-.9q-19.874.033-39.748.007c-.87,0-.982.321-.979,1.063q.038,9.963.017,19.925c0,1.857-.24,1.665,1.686,1.669q9.606.018,19.213,0m14.6-6.939v0h5.386c.38,0,.774.033.772-.535q-.01-3.759-.008-7.519c0-.462-.2-.663-.68-.656q-5.385.072-10.771.111c-.617,0-.841.3-.84.873q.01,3.456,0,6.911c0,.591.233.835.854.823,1.761-.032,3.523-.011,5.285-.011M11.267,12.439c2.149,0,4.005,0,5.86,0Q22,12.429,26.872,12.4c.256,0,.616.131.751-.131.182-.354-.234-.508-.417-.718-.756-.867-1.52-1.727-2.3-2.572q-2.1-2.273-4.229-4.52c-.309-.325-.6-.75-1.152-.191-1.382,1.392-2.836,2.712-4.233,4.088C14,9.632,12.744,10.939,11.267,12.439m25.8.015c-.016-.247.006-.334-.028-.373Q33.4,7.908,29.755,3.739c-.263-.3-.452-.29-.73.008-.74.793-1.506,1.56-2.278,2.322-.333.329-.334.57,0,.926,1.533,1.627,3.039,3.28,4.549,4.93a1.434,1.434,0,0,0,1.143.537c1.522-.021,3.045-.008,4.628-.008" fill="url(#linear-gradient)"></path><path id="Path_23" data-name="Path 23" d="M36.469,28.478a1.9,1.9,0,0,1-1.889-1.961,1.942,1.942,0,0,1,1.908-1.873A2.053,2.053,0,0,1,38.445,26.6a1.9,1.9,0,0,1-1.976,1.875" fill="url(#linear-gradient)"></path></g></g></svg>