<svg xmlns="http://www.w3.org/2000/svg" xmlns:xlink="http://www.w3.org/1999/xlink" id="Group_117" data-name="Group 117" width="47.195" height="40.708" viewBox="0 0 47.195 40.708"><defs><linearGradient id="linear-gradient" x1="0.5" x2="1.106" y2="1" gradientUnits="objectBoundingBox"><stop offset="0" stop-color="#4c0ec4"></stop><stop offset="1" stop-color="#ea00f6"></stop></linearGradient><clipPath id="clip-path"><rect id="Rectangle_136" data-name="Rectangle 136" width="47.195" height="40.708" transform="translate(0 0)" fill="url(#linear-gradient)"></rect></clipPath></defs><g id="Group_116" data-name="Group 116" clip-path="url(#clip-path)"><path id="Path_24" data-name="Path 24" d="M47.195,13.439c-1.059.93-2.355.9-3.643.9-7.048,0-14.1.015-21.143-.033-.97-.007-1.185.289-1.178,1.2.036,5.455.025,10.91,0,16.365,0,.6.221.785.751.787.88,0,1.761,0,2.642.024,1.272.034,1.867.48,1.868,1.369,0,.987-.519,1.4-1.907,1.412-2.3.015-4.607,0-6.911-.028a1.124,1.124,0,0,0-1.305.9,6.584,6.584,0,0,1-6.036,4.35,6.742,6.742,0,0,1-6.044-4.524c-.146-.448-.251-.756-.849-.78A3.183,3.183,0,0,1,.043,32.011C-.031,28.048.011,24.083.021,20.119a2.408,2.408,0,0,1,.791-1.7c3.043-3.091,6.194-6.069,9.332-9.062A4.606,4.606,0,0,1,13.4,8.159c1.423-.031,2.849-.056,4.269.01.8.038.981-.263.935-.993-.071-1.114-.061-2.234-.071-3.352C18.507,1.244,19.682.038,22.3.021,25.823,0,29.347.015,32.871.015c3.219,0,6.438.036,9.656-.013,2.036-.032,3.754.412,4.668,2.453ZM32.839,11.5c3.554,0,7.108-.005,10.662,0,.515,0,.9.02.886-.717-.04-2.4-.027-4.806.01-7.209.012-.735-.288-.916-.968-.913q-10.611.046-21.222.041c-.684,0-.962.178-.95.915.037,2.3.05,4.6-.02,6.9-.024.781.19,1,.941.99,3.553-.028,7.107-.013,10.661-.015M10.607,22.435v-.027c2.37,0,4.742-.017,7.112.012.568.007.778-.135.774-.734q-.03-4.979.008-9.957c0-.542-.125-.8-.736-.789-1.489.031-2.98.007-4.47,0a2.062,2.062,0,0,0-1.545.607q-4.021,3.88-8.1,7.7a2.915,2.915,0,0,0-.96,2.14c-.036.765.147,1.091,1,1.069,2.3-.058,4.606-.02,6.909-.02m.078,2.8c-2.335,0-4.67.024-7-.015-.706-.011-.95.2-.929.915.054,1.893.048,3.789.072,5.683a1.517,1.517,0,0,0,.079.6,1.029,1.029,0,0,0,.434.528c.242.091.428-.168.543-.37.217-.379.4-.776.6-1.17a6.407,6.407,0,0,1,7.606-3.528A5.886,5.886,0,0,1,16.27,31.8a1.333,1.333,0,0,0,1.719.949c.907-.136.537-.891.546-1.388.032-1.758-.039-3.518,0-5.276.017-.679-.195-.871-.85-.863-2.334.03-4.669.012-7,.012m3.387,9.029a3.6,3.6,0,0,0-3.536-3.789,3.722,3.722,0,1,0-.255,7.439,3.611,3.611,0,0,0,3.791-3.65" fill="url(#linear-gradient)"></path><path id="Path_25" data-name="Path 25" d="M47.195,32.964a4.1,4.1,0,0,1-4.7,2.5c-.572-.071-.878.077-1.085.725a6.628,6.628,0,0,1-6.962,4.456,6.6,6.6,0,0,1-.5-12.939,6.576,6.576,0,0,1,7.438,4.121,2.334,2.334,0,0,0,2.79.74c.336-.249.21-.624.211-.94.018-4.1.018-8.2.026-12.3a8.969,8.969,0,0,1,.05-1.217c.207-1.482,1.075-1.837,2.24-.938.158.122.332.225.5.337ZM35.215,37.88a3.743,3.743,0,0,0,3.758-3.629,3.662,3.662,0,1,0-7.319-.031,3.585,3.585,0,0,0,3.561,3.66" fill="url(#linear-gradient)"></path><path id="Path_26" data-name="Path 26" d="M15.682,16.387c0,.744.006,1.488,0,2.232a1.289,1.289,0,0,1-1.274,1.422,26.149,26.149,0,0,1-4.862.006A1.237,1.237,0,0,1,8.3,18.71a1.283,1.283,0,0,1,1.261-1.337,14.19,14.19,0,0,1,2.431-.046c.655.034.923-.186.9-.852-.023-.844-.014-1.691.041-2.533a1.267,1.267,0,0,1,1.425-1.358c.938.036,1.294.611,1.307,1.469.012.778,0,1.556,0,2.334h.006" fill="url(#linear-gradient)"></path></g></svg>